<svg width="102.000000" height="100.000000" viewBox="0 0 102 100" fill="none" xmlns="http://www.w3.org/2000/svg" xmlns:xlink="http://www.w3.org/1999/xlink">
	<desc>
			Created with Pixso.
	</desc>
	<defs/>
	<path id="Path" d="M50.7679 0.00952148C50.7679 0.00952148 80.7787 -1.31482 96.6843 28.2585C88.2817 28.2585 48.2166 28.2585 48.2166 28.2585C48.2166 28.2585 39.0632 27.9634 31.2604 38.8533C29.0095 43.4141 26.6093 48.1228 29.3102 57.3914C25.4092 50.9187 8.60242 22.2266 8.60242 22.2266C8.60242 22.2266 20.4575 1.18604 50.7679 0.00952148Z" fill="#E16B5A" fill-opacity="1.000000" fill-rule="nonzero"/>
	<path id="Path" d="M95.1222 75.0952C95.1222 75.0952 81.2836 101.238 47.2104 99.9524C51.4137 92.8188 71.4503 58.7993 71.4503 58.7993C71.4503 58.7993 76.2874 51.1733 70.5754 39.103C67.6716 34.9109 58.8755 30.5171 49.3379 28.175C57.0081 28.1001 96.5887 28.1797 96.5887 28.1797C96.5887 28.1797 109.241 48.7695 95.1222 75.0952Z" fill="#FFD464" fill-opacity="1.000000" fill-rule="nonzero"/>
	<path id="Path" d="M6.62756 75.2939C6.62756 75.2939 -9.54211 50.4688 8.63171 22.1782C12.8319 29.3149 32.8573 63.3408 32.8573 63.3408C32.8573 63.3408 37.1711 71.261 50.6892 72.4453C55.842 72.0767 61.2025 71.7634 68.0399 64.8376C64.2701 71.3867 47.3274 99.9993 47.3274 99.9993C47.3274 99.9993 22.8171 100.448 6.62756 75.2939Z" fill="#74B340" fill-opacity="1.000000" fill-rule="nonzero"/>
	<ellipse id="Oval" cx="50.646240" cy="50.406250" rx="23.064327" ry="22.656250" fill="#FFFFFF" fill-opacity="1.000000"/>
	<ellipse id="Oval" cx="50.638306" cy="50.406250" rx="18.292398" ry="17.968750" fill="#2995CC" fill-opacity="1.000000"/>
	<path id="Path" d="M50.6431 32.4414C50.2788 32.4414 49.9186 32.4546 49.5607 32.4751C59.1586 33.0259 66.7699 40.8438 66.7699 50.4094C66.7699 59.9766 59.1586 67.7954 49.5607 68.3462C49.9193 68.3657 50.2797 68.3796 50.6431 68.3796C60.7445 68.3796 68.9355 60.3335 68.9355 50.4094C68.9355 40.4868 60.7445 32.4414 50.6431 32.4414Z" fill="#268CBF" fill-opacity="1.000000" fill-rule="nonzero"/>
</svg>
