<svg width="105.000000" height="100.000000" viewBox="0 0 105 100" fill="none" xmlns="http://www.w3.org/2000/svg" xmlns:xlink="http://www.w3.org/1999/xlink">
	<desc>
			Created with Pixso.
	</desc>
	<defs/>
	<path id="Path" d="M105 50C105 78.8618 81.4866 100 52.5 100C23.5134 100 0 76.5879 0 47.7261C0 38.6826 2.32971 30.136 6.39185 22.7261C6.43787 22.5889 6.52966 22.4517 6.62158 22.3601C4.33777 18.9558 3.33374 10.3176 9.12842 4.54126C9.12842 6.95239 10.5919 11.0886 12.2325 14.1792C13.5581 16.6362 14.9691 18.407 15.9731 18.1782C18.2568 17.636 26.2434 17.636 27.3853 18.1782C29.2622 15.7737 33.8297 9.08911 41.0878 9.08911C37.0256 13.1338 25.3838 27.2739 45.6553 27.2739C47.9391 27.2739 50.2228 27.2739 50.2228 27.2739L36.5203 36.363C36.5203 36.363 38.0757 39.3623 36.5203 40.9109C34.7878 39.1792 27.3918 42.7732 27.3918 47.7261C27.3918 52.679 32.6879 59.0891 43.3716 59.0891C54.0553 59.0891 51.3582 54.5413 57.0675 54.5413C62.7769 54.5413 63.9122 59.0891 63.9122 59.0891C56.0569 59.0891 50.354 68.1782 41.0878 68.1782C45.6553 71.5435 48.6675 72.7261 54.7837 72.7261C69.8972 72.7261 82.1757 60.5005 82.1757 45.4521C82.1757 39.3623 80.1675 33.769 76.7878 29.2275C82.9041 33.7754 87.0122 40.7737 87.7472 48.7258C88.5675 45.5437 89.0269 42.1328 89.0269 38.637C89.0269 24.9543 83.1863 6.86084 73.0472 0C87.6553 4.3584 105 18.4658 105 45.4521C105 45.9553 105 49.4968 105 50Z" fill="#FF9800" fill-opacity="1.000000" fill-rule="nonzero"/>
</svg>
