<svg width="88.000000" height="24.000000" viewBox="0 0 88 24" fill="none" xmlns="http://www.w3.org/2000/svg" xmlns:xlink="http://www.w3.org/1999/xlink">
	<desc>
			Created with Pixso.
	</desc>
	<defs/>
	<path id="Path" d="M22.675 0L1.32495 0C0.593018 0 0 0.592773 0 1.3252L0 22.6758C0 23.4072 0.593018 24 1.32495 24L12.8199 24L12.8199 14.7061L9.69202 14.7061L9.69202 11.084L12.8199 11.084L12.8199 8.41309C12.8199 5.31299 14.713 3.625 17.479 3.625C18.804 3.625 19.942 3.72412 20.274 3.76807L20.274 7.00781L18.356 7.00879C16.8521 7.00879 16.561 7.72412 16.561 8.77197L16.561 11.085L20.1479 11.085L19.681 14.707L16.561 14.707L16.561 24L22.677 24C23.407 24 24 23.4072 24 22.6748L24 1.3252C24 0.592773 23.407 0 22.675 0Z" fill="#FFFFFF" fill-opacity="1.000000" fill-rule="evenodd"/>
	<path id="Path" d="M88 4.55713C87.1169 4.94922 86.168 5.21289 85.172 5.33203C86.189 4.72314 86.97 3.75781 87.337 2.60791C86.386 3.17188 85.332 3.58203 84.21 3.80322C83.313 2.84619 82.032 2.24805 80.616 2.24805C77.437 2.24805 75.101 5.21387 75.819 8.29297C71.728 8.08789 68.1 6.12793 65.671 3.14893C64.381 5.36182 65.002 8.25684 67.194 9.72314C66.3879 9.69727 65.6281 9.47607 64.965 9.10693C64.911 11.3882 66.546 13.522 68.9139 13.9971C68.2209 14.1851 67.462 14.229 66.6899 14.0811C67.316 16.0371 69.134 17.46 71.29 17.5C69.22 19.123 66.6121 19.8481 64 19.54C66.179 20.937 68.7679 21.752 71.548 21.752C80.6899 21.752 85.855 14.0312 85.543 7.10596C86.505 6.41113 87.34 5.54395 88 4.55713Z" fill="#FFFFFF" fill-opacity="1.000000" fill-rule="evenodd"/>
</svg>
