<svg width="148.000000" height="25.000000" viewBox="0 0 148 25" fill="none" xmlns="http://www.w3.org/2000/svg" xmlns:xlink="http://www.w3.org/1999/xlink">
	<desc>
			Created with Pixso.
	</desc>
	<defs/>
	<path id="BOOKMARK" d="M42.2267 6.29883L37 6.29883L37 19.6641L42.4133 19.6641C43.2222 19.6641 43.9596 19.5117 44.6254 19.2065C45.2911 18.9019 45.8199 18.4663 46.212 17.8999C46.604 17.334 46.8 16.6836 46.8 15.9492C46.8 15.1904 46.5947 14.54 46.184 13.9985C45.7733 13.4575 45.2196 13.062 44.5227 12.8135L44.5227 12.6641C45.0577 12.4028 45.4902 12.0264 45.8199 11.5347C46.1498 11.043 46.3147 10.4614 46.3147 9.78955C46.3147 9.15479 46.1343 8.56982 45.7733 8.03467C45.4125 7.49951 44.9177 7.07666 44.2893 6.76514C43.6609 6.4541 42.9734 6.29883 42.2267 6.29883ZM42.04 11.7495C42.5875 11.7495 43.0262 11.5967 43.356 11.292C43.6858 10.9873 43.8507 10.6045 43.8507 10.144C43.8507 9.6958 43.692 9.31934 43.3746 9.01465C43.0574 8.70996 42.6373 8.55713 42.1146 8.55713L39.52 8.55713L39.52 11.7495L42.04 11.7495ZM42.3199 17.3682C42.9298 17.3682 43.4058 17.2095 43.748 16.8921C44.0902 16.5747 44.2614 16.1611 44.2614 15.6509C44.2614 15.1406 44.0872 14.7236 43.7386 14.3999C43.3903 14.0767 42.8925 13.9146 42.2454 13.9146L39.52 13.9146L39.52 17.3682L42.3199 17.3682ZM51.6907 19.0386C52.7546 19.6548 53.9399 19.9629 55.2467 19.9629C56.5533 19.9629 57.7386 19.6548 58.8026 19.0386C59.8667 18.4229 60.7036 17.5796 61.3134 16.5093C61.9231 15.439 62.228 14.2632 62.228 12.9814C62.228 11.6997 61.9231 10.5234 61.3134 9.45312C60.7036 8.3833 59.8667 7.54004 58.8026 6.92383C57.7386 6.30811 56.5533 6 55.2467 6C53.9399 6 52.7546 6.30811 51.6907 6.92383C50.6267 7.54004 49.7898 8.3833 49.1801 9.45312C48.5702 10.5234 48.2654 11.6997 48.2654 12.9814C48.2654 14.2632 48.5702 15.439 49.1801 16.5093C49.7898 17.5796 50.6267 18.4229 51.6907 19.0386ZM55.2467 17.5732C56.068 17.5732 56.8209 17.3804 57.5054 16.9946C58.1898 16.6089 58.728 16.0674 59.12 15.3706C59.512 14.6738 59.708 13.8774 59.708 12.9814C59.708 12.0854 59.512 11.2891 59.12 10.5918C58.728 9.89502 58.1898 9.354 57.5054 8.96777C56.8209 8.58203 56.068 8.38916 55.2467 8.38916C54.4253 8.38916 53.6755 8.58203 52.9973 8.96777C52.3191 9.354 51.7841 9.89502 51.392 10.5918C51 11.2891 50.804 12.0854 50.804 12.9814C50.804 13.8774 51 14.6738 51.392 15.3706C51.7841 16.0674 52.3191 16.6089 52.9973 16.9946C53.6755 17.3804 54.4253 17.5732 55.2467 17.5732ZM67.0439 19.0386C68.108 19.6548 69.2933 19.9629 70.6 19.9629C71.9066 19.9629 73.092 19.6548 74.156 19.0386C75.22 18.4229 76.0569 17.5796 76.6666 16.5093C77.2765 15.439 77.5813 14.2632 77.5813 12.9814C77.5813 11.6997 77.2765 10.5234 76.6666 9.45312C76.0569 8.3833 75.22 7.54004 74.156 6.92383C73.092 6.30811 71.9066 6 70.6 6C69.2933 6 68.108 6.30811 67.0439 6.92383C65.98 7.54004 65.1431 8.3833 64.5333 9.45312C63.9236 10.5234 63.6187 11.6997 63.6187 12.9814C63.6187 14.2632 63.9236 15.439 64.5333 16.5093C65.1431 17.5796 65.98 18.4229 67.0439 19.0386ZM70.6 17.5732C71.4214 17.5732 72.1742 17.3804 72.8586 16.9946C73.5431 16.6089 74.0813 16.0674 74.4734 15.3706C74.8654 14.6738 75.0613 13.8774 75.0613 12.9814C75.0613 12.0854 74.8654 11.2891 74.4734 10.5918C74.0813 9.89502 73.5431 9.354 72.8586 8.96777C72.1742 8.58203 71.4214 8.38916 70.6 8.38916C69.7787 8.38916 69.0289 8.58203 68.3507 8.96777C67.6725 9.354 67.1373 9.89502 66.7454 10.5918C66.3533 11.2891 66.1573 12.0854 66.1573 12.9814C66.1573 13.8774 66.3533 14.6738 66.7454 15.3706C67.1373 16.0674 67.6725 16.6089 68.3507 16.9946C69.0289 17.3804 69.7787 17.5732 70.6 17.5732ZM82.3507 6.29883L79.8307 6.29883L79.8307 19.6641L82.3507 19.6641L82.3507 15.7441L83.8627 13.9707L87.8573 19.6641L90.9374 19.6641L90.9374 19.5146L85.5986 11.9731L90.4333 6.44824L90.4333 6.29883L87.3906 6.29883L82.5 12.0293L82.3507 12.0293L82.3507 6.29883ZM97.0258 6L93.7778 6L93.7778 19.3652L96.2605 19.3652L96.2605 12.7759L96.1111 10.5547L96.2605 10.5547L99.6764 19.3652L101.636 19.3652L105.034 10.5547L105.183 10.5547L105.034 12.7759L105.034 19.3652L107.535 19.3652L107.535 6L104.268 6L100.722 15.3892L100.572 15.3892L97.0258 6ZM117.472 6L114.579 6L109.576 19.3652L112.357 19.3652L113.477 16.1733L118.592 16.1733L119.712 19.3652L122.493 19.3652L117.472 6ZM117.771 13.8589L116.595 10.4985L116.109 8.89355L115.96 8.89355L115.475 10.4985L114.28 13.8589L117.771 13.8589ZM129.425 6L124.553 6L124.553 19.3652L127.073 19.3652L127.073 14.3442L128.249 14.3442L131.702 19.3652L134.596 19.3652L134.596 19.2158L131.012 14.0825L131.03 13.9521C131.852 13.6533 132.533 13.1709 133.074 12.5054C133.616 11.8394 133.886 11.0771 133.886 10.2188C133.886 9.40967 133.7 8.68506 133.326 8.04395C132.953 7.40332 132.427 6.90234 131.749 6.5415C131.071 6.18066 130.296 6 129.425 6ZM129.406 12.0293C129.979 12.0293 130.445 11.855 130.806 11.5068C131.167 11.1582 131.348 10.7163 131.348 10.1812C131.348 9.6709 131.176 9.23535 130.834 8.87451C130.492 8.51367 130.028 8.3335 129.444 8.3335L127.073 8.3335L127.073 12.0293L129.406 12.0293ZM139.156 6L136.636 6L136.636 19.3652L139.156 19.3652L139.156 15.4453L140.668 13.6719L144.663 19.3652L147.743 19.3652L147.743 19.2158L142.404 11.6748L147.239 6.14941L147.239 6L144.196 6L139.306 11.7305L139.156 11.7305L139.156 6Z" clip-rule="evenodd" fill="#FFFFFF" fill-opacity="1.000000" fill-rule="evenodd"/>
	<circle id="Oval" cx="12.500000" cy="12.500000" r="12.500000" fill="#5267DF" fill-opacity="1.000000"/>
	<circle id="Oval" cx="12.500000" cy="12.500000" r="12.500000" stroke="#979797" stroke-opacity="0" stroke-width="0.000000"/>
	<path id="Path 2" d="M11 7C9.89539 7 9 7.89551 9 9L9 19L12.5394 15.561L16.0789 19L16.0789 9C16.0789 7.89551 15.1835 7 14.0789 7L11 7Z" fill="#FFFFFF" fill-opacity="1.000000" fill-rule="evenodd"/>
	<path id="Path 2" d="M9 19L12.5394 15.561L16.0789 19L16.0789 9C16.0789 7.89551 15.1835 7 14.0789 7L11 7C9.89539 7 9 7.89551 9 9L9 19Z" stroke="#979797" stroke-opacity="0" stroke-width="0.000000"/>
</svg>
